# xmcd CD database file
#
# Track frame offsets:
#	150
#	45085
#	80265
#	108877
#	153975
#	184860
#	212500
#	237402
#	267480
#	304790
#
# Disc length: 4640 seconds
#
# Revision: 0
# Processed by: cddbd v1.5.2PL0 Copyright (c) Steve Scherf et al.
# Submitted via: CDex 1.51
#
DISCID=76121e0a
DTITLE=jazztronik - tender vision remixes+2
DYEAR=2001
DGENRE=Jazz
TTITLE0=tender vision
TTITLE1=Song of Babe
TTITLE2=Brisa
TTITLE3=Dizzin'
TTITLE4=Feel the air
TTITLE5=Don't hold in your tears
TTITLE6=Spur
TTITLE7=Shinobi
TTITLE8=Zoology
TTITLE9=Shinobi 12
EXTD=YEAR: 2001
EXTT0=
EXTT1=
EXTT2=
EXTT3=
EXTT4=
EXTT5=
EXTT6=
EXTT7=
EXTT8=
EXTT9=
PLAYORDER=
